<svg preserveAspectRatio="none" width="100%" height="100%" overflow="visible" style="display: block;" viewBox="0 0 143 12" fill="none" xmlns="http://www.w3.org/2000/svg">
<path id="image 17 (Traced)" fill-rule="evenodd" clip-rule="evenodd" d="M0.402626 0.559522L0 1.1116V6.13193V11.1523L0.406244 11.5428C0.629924 11.7575 1.14943 11.9332 1.56085 11.9332H2.3092L2.57684 11.4526L2.84448 10.9719V5.90087V0.829597L2.37153 0.4184C1.71316 -0.154294 0.879206 -0.0944179 0.402626 0.559522ZM5.32332 0.394053C4.79063 0.905876 4.7989 1.84256 5.33987 2.27512L5.76655 2.61601L10.6252 2.74024L15.4838 2.86446L10.1985 6.41815L4.9132 9.97209V10.6544C4.9132 11.5085 5.3422 11.9349 6.19322 11.927L6.85262 11.9207L13.9331 7.14415C17.8272 4.51696 21.1684 2.14294 21.3577 1.8684L21.7019 1.369L21.381 0.750339L21.06 0.131432L13.3967 0.0655871L5.73345 0L5.32332 0.394053ZM24.1005 0.305355C23.9299 0.469337 23.7902 0.910099 23.7902 1.28502V1.96679L24.3651 2.35339L24.9397 2.74024H29.7044H34.4689L29.1942 6.30411L23.9195 9.86798L23.8363 10.543C23.729 11.4104 24.1916 11.9359 25.0501 11.9225L25.7297 11.9118L32.9702 7.01544L40.2107 2.11909L40.2893 1.46714L40.3682 0.81494L39.9477 0.411197L39.5272 0.0072032H31.9692H24.4108L24.1005 0.305355ZM43.3593 4.69907C39.5443 7.27086 36.1754 9.61257 35.8728 9.90326L35.3231 10.4317L35.5734 11.1202L35.824 11.8089L36.6121 11.8835L37.4001 11.9578L43.3308 7.96182L49.2613 3.96588L49.3906 7.71063L49.5199 11.4556L49.9078 11.6907C50.4958 12.0467 51.3745 11.9791 51.8288 11.5428L52.2351 11.1523V5.99106V0.829597L51.7621 0.4184C50.9217 -0.312562 50.3981 -0.0459659 43.3593 4.69907ZM54.71 0.397533L54.3038 0.788106V5.87999V10.9719L54.5714 11.4526L54.8391 11.9332H55.5657H56.2924L56.7131 11.4864L57.1338 11.0397L57.2057 7.40577L57.2776 3.77183L60.5681 5.98906C64.5602 8.67911 64.2383 8.67117 67.9558 6.16771C71.3474 3.88389 71.3611 3.87072 71.3668 2.93528L71.3707 2.26071L70.8706 2.00356C70.0449 1.57895 69.7946 1.67808 67.1182 3.48685C64.0089 5.58806 64.9533 5.70955 60.3682 2.6175L56.5018 0.0104333L55.809 0.00869692C55.4281 0.00795155 54.9337 0.182866 54.71 0.397533ZM73.6088 0.461634L73.1808 0.915815V3.64735V6.37865L73.576 7.49273C74.0885 8.93776 75.2534 10.2779 76.7101 11.0983L77.8742 11.7538L79.6657 11.8768L81.4575 12L82.6698 11.5553C83.3364 11.3105 84.3703 10.678 84.9668 10.1495L86.0516 9.1887L86.6469 7.89001L87.2419 6.59133L87.2579 3.65307L87.274 0.715058L86.772 0.361009C86.1923 -0.0474547 85.6278 -0.0844801 85.0759 0.249944L84.6881 0.485238L84.5482 3.42622L84.4085 6.36747L83.8877 7.2239C83.6015 7.69497 82.9661 8.34221 82.4761 8.66197L81.585 9.24361L80.0272 9.15168L78.4695 9.0595L77.8145 8.58495C77.4543 8.32382 76.9335 7.82442 76.657 7.47509L76.1546 6.83978L76.0253 3.8332L75.896 0.826617L75.5412 0.416906C75.0716 -0.125228 74.1412 -0.103606 73.6088 0.461634ZM89.8782 0.397533C89.6548 0.612449 89.472 1.05694 89.472 1.38565V1.98344L90.0903 2.37252L90.7085 2.76185L95.5261 2.6888L100.344 2.61601L99.8859 2.94298C99.6338 3.12261 97.1875 4.77734 94.4498 6.6199L89.472 9.9701V10.6534C89.472 11.4969 89.8974 11.9332 90.7197 11.9332H91.3467L98.459 7.15483C102.371 4.52689 105.744 2.12307 105.956 1.81299L106.34 1.24949L105.916 0.628347L105.493 0.0072032H97.8885H90.2847L89.8782 0.397533ZM108.659 0.305355C108.489 0.469337 108.349 0.910099 108.349 1.28502V1.96679L108.924 2.35339L109.498 2.74024H114.26H119.021L113.75 6.28249L108.478 9.825L108.395 10.5214C108.288 11.4116 108.746 11.9374 109.609 11.9173L110.288 11.9011L117.529 7.00302L124.769 2.10493L124.853 1.41372C124.898 1.03358 124.797 0.561512 124.627 0.364983L124.318 0.0072032H116.644H108.97L108.659 0.305355ZM126.853 0.559522L126.45 1.1116V5.97018V10.8288L126.853 11.3808L127.255 11.9332H127.965C128.355 11.9332 128.814 11.799 128.984 11.635L129.295 11.3369V6.06236V0.788106L128.889 0.397533C128.665 0.182866 128.206 0.0072032 127.869 0.0072032H127.255L126.853 0.559522ZM134.45 0.690461L133.048 1.37372L132.226 2.42395L131.403 3.47418L131.094 4.80392L130.784 6.13342L131.194 7.48056C131.42 8.22121 131.978 9.26125 132.435 9.79121L133.266 10.755L134.577 11.3416L135.889 11.9282L139.016 11.9307L142.144 11.9332L142.572 11.4787C143.141 10.875 143.112 10.3015 142.483 9.69704L141.966 9.20013H139.03H136.095L135.216 8.6329L134.337 8.06592L133.957 7.01793L133.578 5.97018L133.957 4.92243L134.337 3.87444L135.216 3.30746L136.095 2.74024H138.972H141.851L142.425 2.35339L143 1.96679V1.39807C143 1.08551 142.787 0.644496 142.527 0.4184L142.054 0.0072032H138.953H135.852L134.45 0.690461Z" fill="var(--fill-0, white)"/>
</svg>
